<?xml version="1.0" encoding="utf-8" standalone="no"?>
<!DOCTYPE svg PUBLIC "-//W3C//DTD SVG 1.1//EN"
  "http://www.w3.org/Graphics/SVG/1.1/DTD/svg11.dtd">
<svg xmlns:xlink="http://www.w3.org/1999/xlink" width="547.2pt" height="410.4pt" viewBox="0 0 547.2 410.4" xmlns="http://www.w3.org/2000/svg" version="1.1">
 <metadata>
  <rdf:RDF xmlns:dc="http://purl.org/dc/elements/1.1/" xmlns:cc="http://creativecommons.org/ns#" xmlns:rdf="http://www.w3.org/1999/02/22-rdf-syntax-ns#">
   <cc:Work>
    <dc:type rdf:resource="http://purl.org/dc/dcmitype/StillImage"/>
    <dc:date>2024-02-20T11:57:10.907850</dc:date>
    <dc:format>image/svg+xml</dc:format>
    <dc:creator>
     <cc:Agent>
      <dc:title>Matplotlib v3.8.2, https://matplotlib.org/</dc:title>
     </cc:Agent>
    </dc:creator>
   </cc:Work>
  </rdf:RDF>
 </metadata>
 <defs>
  <style type="text/css">*{stroke-linejoin: round; stroke-linecap: butt}</style>
 </defs>
 <g id="figure_1">
  <g id="patch_1">
   <path d="M 0 410.4 
L 547.2 410.4 
L 547.2 0 
L 0 0 
z
" style="fill: #cccccc"/>
  </g>
  <g id="axes_1">
   <g id="patch_2">
    <path d="M 342 307.8 
C 378.279784 307.8 413.078526 293.385889 438.732208 267.732208 
C 464.385889 242.078526 478.8 207.279784 478.8 171 
C 478.8 134.720216 464.385889 99.921474 438.732208 74.267792 
C 413.078526 48.614111 378.279784 34.2 342 34.2 
C 305.720216 34.2 270.921474 48.614111 245.267792 74.267792 
C 219.614111 99.921474 205.2 134.720216 205.2 171 
C 205.2 207.279784 219.614111 242.078526 245.267792 267.732208 
C 270.921474 293.385889 305.720216 307.8 342 307.8 
z
" clip-path="url(#p4a038b5f03)" style="fill: #ffffff; stroke: #000000; stroke-width: 2; stroke-linejoin: miter"/>
   </g>
   <g id="patch_3">
    <path d="M 205.2 307.8 
C 241.479784 307.8 276.278526 293.385889 301.932208 267.732208 
C 327.585889 242.078526 342 207.279784 342 171 
C 342 134.720216 327.585889 99.921474 301.932208 74.267792 
C 276.278526 48.614111 241.479784 34.2 205.2 34.2 
C 168.920216 34.2 134.121474 48.614111 108.467792 74.267792 
C 82.814111 99.921474 68.4 134.720216 68.4 171 
C 68.4 207.279784 82.814111 242.078526 108.467792 267.732208 
C 134.121474 293.385889 168.920216 307.8 205.2 307.8 
L 205.2 307.8 
z
" clip-path="url(#p4a038b5f03)" style="fill: none; stroke: #000000; stroke-width: 2; stroke-linejoin: miter"/>
   </g>
   <g id="text_1">
    <!-- $A \cap B$ -->
    <g transform="translate(222.013618 180.961371) scale(0.4 -0.4)">
     <defs>
      <path id="CMMI12-41" d="M 1088 691 
C 864 314 646 186 339 186 
C 269 180 218 180 218 58 
C 218 24 250 0 294 0 
C 410 0 698 0 813 0 
C 998 0 1203 0 1382 0 
C 1421 0 1498 0 1498 122 
C 1498 180 1446 186 1408 186 
C 1261 186 1139 236 1139 388 
C 1139 476 1178 546 1261 685 
L 1747 1479 
L 3379 1479 
C 3386 1423 3386 1373 3392 1316 
C 3411 1152 3488 495 3488 376 
C 3488 186 3162 186 3059 186 
C 2989 186 2918 186 2918 70 
C 2918 0 2976 0 3014 0 
C 3123 0 3251 0 3360 0 
L 3725 0 
C 4115 0 4397 0 4403 0 
C 4448 0 4518 0 4518 122 
C 4518 186 4461 186 4365 186 
C 4013 186 4006 244 3987 434 
L 3597 4404 
C 3584 4531 3558 4544 3488 4544 
C 3424 4544 3386 4531 3328 4435 
L 1088 691 
z
M 1856 1664 
L 3142 3819 
L 3360 1664 
L 1856 1664 
z
" transform="scale(0.015625)"/>
      <path id="CMSY10-5c" d="M 3911 2436 
C 3911 3409 2932 3831 2132 3831 
C 1300 3831 352 3383 352 2442 
L 352 94 
C 352 -22 352 -137 480 -137 
C 608 -137 608 -22 608 94 
L 608 2410 
C 608 3370 1652 3575 2132 3575 
C 2420 3575 2823 3518 3163 3300 
C 3655 2986 3655 2577 3655 2404 
L 3655 94 
C 3655 -22 3655 -137 3783 -137 
C 3911 -137 3911 -22 3911 94 
L 3911 2436 
z
" transform="scale(0.015625)"/>
      <path id="CMMI12-42" d="M 2342 3921 
C 2400 4160 2426 4160 2675 4160 
L 3507 4160 
C 4230 4160 4230 3544 4230 3485 
C 4230 2966 3712 2304 2867 2304 
L 1946 2304 
L 2342 3921 
z
M 3424 2275 
C 4122 2402 4755 2886 4755 3473 
C 4755 3970 4314 4352 3590 4352 
L 1536 4352 
C 1414 4352 1357 4352 1357 4226 
C 1357 4160 1414 4160 1510 4160 
C 1901 4160 1901 4112 1901 4044 
C 1901 4032 1901 3993 1875 3897 
L 1011 472 
C 954 249 941 185 493 185 
C 371 185 307 185 307 70 
C 307 0 346 0 474 0 
L 2669 0 
C 3648 0 4403 739 4403 1383 
C 4403 1906 3942 2224 3424 2275 
z
M 2515 185 
L 1651 185 
C 1562 185 1549 185 1510 192 
C 1440 198 1434 211 1434 261 
C 1434 305 1446 343 1459 399 
L 1907 2176 
L 3110 2176 
C 3866 2176 3866 1483 3866 1433 
C 3866 828 3309 185 2515 185 
z
" transform="scale(0.015625)"/>
     </defs>
     <use xlink:href="#CMMI12-41" transform="scale(0.996264)"/>
     <use xlink:href="#CMSY10-5c" transform="translate(95.267092 0) scale(0.996264)"/>
     <use xlink:href="#CMMI12-42" transform="translate(183.824118 0) scale(0.996264)"/>
    </g>
   </g>
   <g id="text_2">
    <!-- $A$ -->
    <g transform="translate(122.174426 180.961371) scale(0.4 -0.4)">
     <use xlink:href="#CMMI12-41" transform="scale(0.996264)"/>
    </g>
   </g>
   <g id="text_3">
    <!-- $B$ -->
    <g transform="translate(395.578399 180.961371) scale(0.4 -0.4)">
     <use xlink:href="#CMMI12-42" transform="scale(0.996264)"/>
    </g>
   </g>
   <g id="text_4">
    <!-- $B^{\mathsf{c}}$ -->
    <g transform="translate(251.943495 369.061371) scale(0.4 -0.4)">
     <defs>
      <path id="CMSS17-63" d="M 2464 2541 
C 2464 2585 2170 2714 2093 2739 
C 1882 2816 1613 2816 1542 2816 
C 710 2816 211 2093 211 1363 
C 211 595 768 -64 1517 -64 
C 1946 -64 2253 76 2502 242 
L 2464 664 
C 2189 453 1869 337 1523 337 
C 1024 337 698 774 698 1369 
C 698 1831 909 2414 1549 2414 
C 1901 2414 2099 2343 2394 2145 
L 2464 2541 
z
" transform="scale(0.015625)"/>
     </defs>
     <use xlink:href="#CMMI12-42" transform="scale(0.996264)"/>
     <use xlink:href="#CMSS17-63" transform="translate(79.135523 36.153639) scale(0.697382)"/>
    </g>
   </g>
  </g>
 </g>
 <defs>
  <clipPath id="p4a038b5f03">
   <rect x="0" y="0" width="547.2" height="410.4"/>
  </clipPath>
 </defs>
</svg>
