<?xml version="1.0" encoding="utf-8" standalone="no"?>
<!DOCTYPE svg PUBLIC "-//W3C//DTD SVG 1.1//EN"
  "http://www.w3.org/Graphics/SVG/1.1/DTD/svg11.dtd">
<svg xmlns:xlink="http://www.w3.org/1999/xlink" width="547.2pt" height="410.4pt" viewBox="0 0 547.2 410.4" xmlns="http://www.w3.org/2000/svg" version="1.1">
 <metadata>
  <rdf:RDF xmlns:dc="http://purl.org/dc/elements/1.1/" xmlns:cc="http://creativecommons.org/ns#" xmlns:rdf="http://www.w3.org/1999/02/22-rdf-syntax-ns#">
   <cc:Work>
    <dc:type rdf:resource="http://purl.org/dc/dcmitype/StillImage"/>
    <dc:date>2024-02-20T11:54:15.907289</dc:date>
    <dc:format>image/svg+xml</dc:format>
    <dc:creator>
     <cc:Agent>
      <dc:title>Matplotlib v3.8.2, https://matplotlib.org/</dc:title>
     </cc:Agent>
    </dc:creator>
   </cc:Work>
  </rdf:RDF>
 </metadata>
 <defs>
  <style type="text/css">*{stroke-linejoin: round; stroke-linecap: butt}</style>
 </defs>
 <g id="figure_1">
  <g id="patch_1">
   <path d="M 0 410.4 
L 547.2 410.4 
L 547.2 0 
L 0 0 
z
" style="fill: #cccccc"/>
  </g>
  <g id="axes_1">
   <g id="PolyCollection_1">
    <path d="M 205.2 171 
L 205.2 171 
L 205.336937 164.880589 
L 205.473874 162.348013 
L 205.610811 160.406178 
L 205.747748 158.770374 
L 205.884685 157.330291 
L 206.021622 156.029342 
L 206.158559 154.8339 
L 206.295495 153.722053 
L 206.432432 152.678575 
L 206.569369 151.692377 
L 206.706306 150.755088 
L 206.843243 149.860201 
L 206.98018 149.00254 
L 207.117117 148.177908 
L 207.254054 147.382844 
L 207.390991 146.614457 
L 207.527928 145.8703 
L 207.664865 145.148279 
L 207.801802 144.44659 
L 207.938739 143.76366 
L 208.075676 143.098112 
L 208.212613 142.448731 
L 208.34955 141.814437 
L 208.486486 141.194267 
L 208.623423 140.587358 
L 208.76036 139.992929 
L 208.897297 139.410278 
L 209.034234 138.838763 
L 209.171171 138.277802 
L 209.308108 137.72686 
L 209.445045 137.185448 
L 209.581982 136.653115 
L 209.718919 136.129445 
L 209.855856 135.614054 
L 209.992793 135.106585 
L 210.12973 134.606706 
L 210.266667 134.11411 
L 210.403604 133.628507 
L 210.540541 133.14963 
L 210.677477 132.677225 
L 210.814414 132.211057 
L 210.951351 131.750902 
L 211.088288 131.296553 
L 211.225225 130.847811 
L 211.362162 130.404491 
L 211.499099 129.966418 
L 211.636036 129.533424 
L 211.772973 129.105353 
L 211.90991 128.682055 
L 212.046847 128.263388 
L 212.183784 127.849218 
L 212.320721 127.439415 
L 212.457658 127.033859 
L 212.594595 126.632432 
L 212.731532 126.235024 
L 212.868468 125.841528 
L 213.005405 125.451843 
L 213.142342 125.065873 
L 213.279279 124.683523 
L 213.416216 124.304705 
L 213.553153 123.929335 
L 213.69009 123.557329 
L 213.827027 123.18861 
L 213.963964 122.823102 
L 214.100901 122.460733 
L 214.237838 122.101432 
L 214.374775 121.745133 
L 214.511712 121.391771 
L 214.648649 121.041284 
L 214.785586 120.693611 
L 214.922523 120.348695 
L 215.059459 120.006479 
L 215.196396 119.66691 
L 215.333333 119.329936 
L 215.47027 118.995505 
L 215.607207 118.66357 
L 215.744144 118.334083 
L 215.881081 118.006998 
L 216.018018 117.682271 
L 216.154955 117.35986 
L 216.291892 117.039722 
L 216.428829 116.721819 
L 216.565766 116.406109 
L 216.702703 116.092557 
L 216.83964 115.781125 
L 216.976577 115.471777 
L 217.113514 115.164478 
L 217.25045 114.859196 
L 217.387387 114.555897 
L 217.524324 114.254549 
L 217.661261 113.955123 
L 217.798198 113.657586 
L 217.935135 113.361911 
L 218.072072 113.068069 
L 218.209009 112.776031 
L 218.345946 112.485772 
L 218.482883 112.197264 
L 218.61982 111.910482 
L 218.756757 111.625401 
L 218.893694 111.341997 
L 219.030631 111.060245 
L 219.167568 110.780123 
L 219.304505 110.501608 
L 219.441441 110.224678 
L 219.578378 109.949312 
L 219.715315 109.675487 
L 219.852252 109.403184 
L 219.989189 109.132383 
L 220.126126 108.863064 
L 220.263063 108.595207 
L 220.4 108.328794 
L 220.536937 108.063808 
L 220.673874 107.800228 
L 220.810811 107.53804 
L 220.947748 107.277224 
L 221.084685 107.017764 
L 221.221622 106.759644 
L 221.358559 106.502848 
L 221.495495 106.24736 
L 221.632432 105.993164 
L 221.769369 105.740246 
L 221.906306 105.488591 
L 222.043243 105.238184 
L 222.18018 104.98901 
L 222.317117 104.741057 
L 222.454054 104.49431 
L 222.590991 104.248756 
L 222.727928 104.004382 
L 222.864865 103.761175 
L 223.001802 103.519123 
L 223.138739 103.278212 
L 223.275676 103.038431 
L 223.412613 102.799769 
L 223.54955 102.562212 
L 223.686486 102.325751 
L 223.823423 102.090373 
L 223.96036 101.856067 
L 224.097297 101.622823 
L 224.234234 101.39063 
L 224.371171 101.159477 
L 224.508108 100.929355 
L 224.645045 100.700252 
L 224.781982 100.47216 
L 224.918919 100.245068 
L 225.055856 100.018966 
L 225.192793 99.793846 
L 225.32973 99.569698 
L 225.466667 99.346513 
L 225.603604 99.124282 
L 225.740541 98.902995 
L 225.877477 98.682645 
L 226.014414 98.463224 
L 226.151351 98.244721 
L 226.288288 98.02713 
L 226.425225 97.810442 
L 226.562162 97.594649 
L 226.699099 97.379743 
L 226.836036 97.165717 
L 226.972973 96.952562 
L 227.10991 96.740272 
L 227.246847 96.528839 
L 227.383784 96.318255 
L 227.520721 96.108514 
L 227.657658 95.899609 
L 227.794595 95.691532 
L 227.931532 95.484276 
L 228.068468 95.277836 
L 228.205405 95.072204 
L 228.342342 94.867373 
L 228.479279 94.663338 
L 228.616216 94.460092 
L 228.753153 94.257628 
L 228.89009 94.055941 
L 229.027027 93.855024 
L 229.163964 93.654871 
L 229.300901 93.455477 
L 229.437838 93.256835 
L 229.574775 93.058941 
L 229.711712 92.861787 
L 229.848649 92.665369 
L 229.985586 92.469681 
L 230.122523 92.274718 
L 230.259459 92.080474 
L 230.396396 91.886944 
L 230.533333 91.694122 
L 230.67027 91.502005 
L 230.807207 91.310585 
L 230.944144 91.119859 
L 231.081081 90.929822 
L 231.218018 90.740468 
L 231.354955 90.551793 
L 231.491892 90.363792 
L 231.628829 90.17646 
L 231.765766 89.989793 
L 231.902703 89.803786 
L 232.03964 89.618435 
L 232.176577 89.433735 
L 232.313514 89.249681 
L 232.45045 89.06627 
L 232.587387 88.883496 
L 232.724324 88.701357 
L 232.861261 88.519847 
L 232.998198 88.338962 
L 233.135135 88.158699 
L 233.272072 87.979053 
L 233.409009 87.80002 
L 233.545946 87.621597 
L 233.682883 87.443779 
L 233.81982 87.266562 
L 233.956757 87.089943 
L 234.093694 86.913919 
L 234.230631 86.738484 
L 234.367568 86.563636 
L 234.504505 86.389372 
L 234.641441 86.215686 
L 234.778378 86.042576 
L 234.915315 85.870039 
L 235.052252 85.69807 
L 235.189189 85.526667 
L 235.326126 85.355825 
L 235.463063 85.185543 
L 235.6 85.015815 
L 235.736937 84.84664 
L 235.873874 84.678013 
L 236.010811 84.509933 
L 236.147748 84.342394 
L 236.284685 84.175395 
L 236.421622 84.008931 
L 236.558559 83.843001 
L 236.695495 83.677601 
L 236.832432 83.512728 
L 236.969369 83.348379 
L 237.106306 83.184551 
L 237.243243 83.021242 
L 237.38018 82.858447 
L 237.517117 82.696166 
L 237.654054 82.534393 
L 237.790991 82.373128 
L 237.927928 82.212367 
L 238.064865 82.052107 
L 238.201802 81.892346 
L 238.338739 81.733081 
L 238.475676 81.574309 
L 238.612613 81.416027 
L 238.74955 81.258234 
L 238.886486 81.100927 
L 239.023423 80.944102 
L 239.16036 80.787758 
L 239.297297 80.631892 
L 239.434234 80.476502 
L 239.571171 80.321585 
L 239.708108 80.167138 
L 239.845045 80.013159 
L 239.981982 79.859647 
L 240.118919 79.706598 
L 240.255856 79.55401 
L 240.392793 79.401881 
L 240.52973 79.250208 
L 240.666667 79.09899 
L 240.803604 78.948225 
L 240.940541 78.797909 
L 241.077477 78.64804 
L 241.214414 78.498618 
L 241.351351 78.349638 
L 241.488288 78.2011 
L 241.625225 78.053001 
L 241.762162 77.905339 
L 241.899099 77.758112 
L 242.036036 77.611318 
L 242.172973 77.464955 
L 242.30991 77.31902 
L 242.446847 77.173513 
L 242.583784 77.02843 
L 242.720721 76.88377 
L 242.857658 76.739531 
L 242.994595 76.595711 
L 243.131532 76.452309 
L 243.268468 76.309321 
L 243.405405 76.166747 
L 243.542342 76.024584 
L 243.679279 75.882831 
L 243.816216 75.741485 
L 243.953153 75.600546 
L 244.09009 75.460011 
L 244.227027 75.319878 
L 244.363964 75.180146 
L 244.500901 75.040812 
L 244.637838 74.901876 
L 244.774775 74.763336 
L 244.911712 74.625189 
L 245.048649 74.487434 
L 245.185586 74.350069 
L 245.322523 74.213093 
L 245.459459 74.076504 
L 245.596396 73.940301 
L 245.733333 73.804481 
L 245.87027 73.669044 
L 246.007207 73.533987 
L 246.144144 73.399309 
L 246.281081 73.265009 
L 246.418018 73.131084 
L 246.554955 72.997534 
L 246.691892 72.864356 
L 246.828829 72.73155 
L 246.965766 72.599114 
L 247.102703 72.467046 
L 247.23964 72.335345 
L 247.376577 72.204009 
L 247.513514 72.073038 
L 247.65045 71.942428 
L 247.787387 71.81218 
L 247.924324 71.682291 
L 248.061261 71.552761 
L 248.198198 71.423587 
L 248.335135 71.294769 
L 248.472072 71.166305 
L 248.609009 71.038193 
L 248.745946 70.910433 
L 248.882883 70.783023 
L 249.01982 70.655961 
L 249.156757 70.529247 
L 249.293694 70.402879 
L 249.430631 70.276855 
L 249.567568 70.151175 
L 249.704505 70.025837 
L 249.841441 69.90084 
L 249.978378 69.776183 
L 250.115315 69.651864 
L 250.252252 69.527882 
L 250.389189 69.404236 
L 250.526126 69.280924 
L 250.663063 69.157946 
L 250.8 69.0353 
L 250.936937 68.912985 
L 251.073874 68.791 
L 251.210811 68.669344 
L 251.347748 68.548015 
L 251.484685 68.427013 
L 251.621622 68.306336 
L 251.758559 68.185982 
L 251.895495 68.065952 
L 252.032432 67.946243 
L 252.169369 67.826855 
L 252.306306 67.707787 
L 252.443243 67.589037 
L 252.58018 67.470604 
L 252.717117 67.352488 
L 252.854054 67.234686 
L 252.990991 67.117199 
L 253.127928 67.000025 
L 253.264865 66.883163 
L 253.401802 66.766612 
L 253.538739 66.65037 
L 253.675676 66.534438 
L 253.812613 66.418813 
L 253.94955 66.303495 
L 254.086486 66.188483 
L 254.223423 66.073775 
L 254.36036 65.959372 
L 254.497297 65.845271 
L 254.634234 65.731472 
L 254.771171 65.617974 
L 254.908108 65.504776 
L 255.045045 65.391876 
L 255.181982 65.279275 
L 255.318919 65.16697 
L 255.455856 65.054962 
L 255.592793 64.943248 
L 255.72973 64.831829 
L 255.866667 64.720703 
L 256.003604 64.60987 
L 256.140541 64.499328 
L 256.277477 64.389076 
L 256.414414 64.279114 
L 256.551351 64.16944 
L 256.688288 64.060055 
L 256.825225 63.950956 
L 256.962162 63.842144 
L 257.099099 63.733617 
L 257.236036 63.625374 
L 257.372973 63.517414 
L 257.50991 63.409737 
L 257.646847 63.302342 
L 257.783784 63.195228 
L 257.920721 63.088394 
L 258.057658 62.981839 
L 258.194595 62.875562 
L 258.331532 62.769564 
L 258.468468 62.663841 
L 258.605405 62.558395 
L 258.742342 62.453225 
L 258.879279 62.348328 
L 259.016216 62.243705 
L 259.153153 62.139355 
L 259.29009 62.035277 
L 259.427027 61.93147 
L 259.563964 61.827934 
L 259.700901 61.724668 
L 259.837838 61.62167 
L 259.974775 61.51894 
L 260.111712 61.416478 
L 260.248649 61.314283 
L 260.385586 61.212353 
L 260.522523 61.110689 
L 260.659459 61.009289 
L 260.796396 60.908153 
L 260.933333 60.80728 
L 261.07027 60.706669 
L 261.207207 60.60632 
L 261.344144 60.506231 
L 261.481081 60.406403 
L 261.618018 60.306834 
L 261.754955 60.207524 
L 261.891892 60.108472 
L 262.028829 60.009677 
L 262.165766 59.911139 
L 262.302703 59.812857 
L 262.43964 59.71483 
L 262.576577 59.617058 
L 262.713514 59.51954 
L 262.85045 59.422275 
L 262.987387 59.325262 
L 263.124324 59.228502 
L 263.261261 59.131993 
L 263.398198 59.035734 
L 263.535135 58.939726 
L 263.672072 58.843967 
L 263.809009 58.748457 
L 263.945946 58.653195 
L 264.082883 58.55818 
L 264.21982 58.463412 
L 264.356757 58.368891 
L 264.493694 58.274615 
L 264.630631 58.180584 
L 264.767568 58.086797 
L 264.904505 57.993254 
L 265.041441 57.899955 
L 265.178378 57.806898 
L 265.315315 57.714082 
L 265.452252 57.621509 
L 265.589189 57.529176 
L 265.726126 57.437083 
L 265.863063 57.34523 
L 266 57.253615 
L 266.136937 57.16224 
L 266.273874 57.071102 
L 266.410811 56.980201 
L 266.547748 56.889538 
L 266.684685 56.79911 
L 266.821622 56.708918 
L 266.958559 56.618961 
L 267.095495 56.529239 
L 267.232432 56.43975 
L 267.369369 56.350495 
L 267.506306 56.261473 
L 267.643243 56.172683 
L 267.78018 56.084125 
L 267.917117 55.995798 
L 268.054054 55.907702 
L 268.190991 55.819836 
L 268.327928 55.7322 
L 268.464865 55.644792 
L 268.601802 55.557614 
L 268.738739 55.470663 
L 268.875676 55.383941 
L 269.012613 55.297445 
L 269.14955 55.211176 
L 269.286486 55.125132 
L 269.423423 55.039315 
L 269.56036 54.953722 
L 269.697297 54.868354 
L 269.834234 54.78321 
L 269.971171 54.69829 
L 270.108108 54.613592 
L 270.245045 54.529118 
L 270.381982 54.444865 
L 270.518919 54.360834 
L 270.655856 54.277024 
L 270.792793 54.193435 
L 270.92973 54.110066 
L 271.066667 54.026917 
L 271.203604 53.943987 
L 271.340541 53.861275 
L 271.477477 53.778783 
L 271.614414 53.696508 
L 271.751351 53.61445 
L 271.888288 53.532609 
L 272.025225 53.450985 
L 272.162162 53.369577 
L 272.299099 53.288385 
L 272.436036 53.207407 
L 272.572973 53.126645 
L 272.70991 53.046096 
L 272.846847 52.965762 
L 272.983784 52.885641 
L 273.120721 52.805732 
L 273.257658 52.726037 
L 273.394595 52.646553 
L 273.531532 52.567281 
L 273.668468 52.567281 
L 273.805405 52.646553 
L 273.942342 52.726037 
L 274.079279 52.805732 
L 274.216216 52.885641 
L 274.353153 52.965762 
L 274.49009 53.046096 
L 274.627027 53.126645 
L 274.763964 53.207407 
L 274.900901 53.288385 
L 275.037838 53.369577 
L 275.174775 53.450985 
L 275.311712 53.532609 
L 275.448649 53.61445 
L 275.585586 53.696508 
L 275.722523 53.778783 
L 275.859459 53.861275 
L 275.996396 53.943987 
L 276.133333 54.026917 
L 276.27027 54.110066 
L 276.407207 54.193435 
L 276.544144 54.277024 
L 276.681081 54.360834 
L 276.818018 54.444865 
L 276.954955 54.529118 
L 277.091892 54.613592 
L 277.228829 54.69829 
L 277.365766 54.78321 
L 277.502703 54.868354 
L 277.63964 54.953722 
L 277.776577 55.039315 
L 277.913514 55.125132 
L 278.05045 55.211176 
L 278.187387 55.297445 
L 278.324324 55.383941 
L 278.461261 55.470663 
L 278.598198 55.557614 
L 278.735135 55.644792 
L 278.872072 55.7322 
L 279.009009 55.819836 
L 279.145946 55.907702 
L 279.282883 55.995798 
L 279.41982 56.084125 
L 279.556757 56.172683 
L 279.693694 56.261473 
L 279.830631 56.350495 
L 279.967568 56.43975 
L 280.104505 56.529239 
L 280.241441 56.618961 
L 280.378378 56.708918 
L 280.515315 56.79911 
L 280.652252 56.889538 
L 280.789189 56.980201 
L 280.926126 57.071102 
L 281.063063 57.16224 
L 281.2 57.253615 
L 281.336937 57.34523 
L 281.473874 57.437083 
L 281.610811 57.529176 
L 281.747748 57.621509 
L 281.884685 57.714082 
L 282.021622 57.806898 
L 282.158559 57.899955 
L 282.295495 57.993254 
L 282.432432 58.086797 
L 282.569369 58.180584 
L 282.706306 58.274615 
L 282.843243 58.368891 
L 282.98018 58.463412 
L 283.117117 58.55818 
L 283.254054 58.653195 
L 283.390991 58.748457 
L 283.527928 58.843967 
L 283.664865 58.939726 
L 283.801802 59.035734 
L 283.938739 59.131993 
L 284.075676 59.228502 
L 284.212613 59.325262 
L 284.34955 59.422275 
L 284.486486 59.51954 
L 284.623423 59.617058 
L 284.76036 59.71483 
L 284.897297 59.812857 
L 285.034234 59.911139 
L 285.171171 60.009677 
L 285.308108 60.108472 
L 285.445045 60.207524 
L 285.581982 60.306834 
L 285.718919 60.406403 
L 285.855856 60.506231 
L 285.992793 60.60632 
L 286.12973 60.706669 
L 286.266667 60.80728 
L 286.403604 60.908153 
L 286.540541 61.009289 
L 286.677477 61.110689 
L 286.814414 61.212353 
L 286.951351 61.314283 
L 287.088288 61.416478 
L 287.225225 61.51894 
L 287.362162 61.62167 
L 287.499099 61.724668 
L 287.636036 61.827934 
L 287.772973 61.93147 
L 287.90991 62.035277 
L 288.046847 62.139355 
L 288.183784 62.243705 
L 288.320721 62.348328 
L 288.457658 62.453225 
L 288.594595 62.558395 
L 288.731532 62.663841 
L 288.868468 62.769564 
L 289.005405 62.875562 
L 289.142342 62.981839 
L 289.279279 63.088394 
L 289.416216 63.195228 
L 289.553153 63.302342 
L 289.69009 63.409737 
L 289.827027 63.517414 
L 289.963964 63.625374 
L 290.100901 63.733617 
L 290.237838 63.842144 
L 290.374775 63.950956 
L 290.511712 64.060055 
L 290.648649 64.16944 
L 290.785586 64.279114 
L 290.922523 64.389076 
L 291.059459 64.499328 
L 291.196396 64.60987 
L 291.333333 64.720703 
L 291.47027 64.831829 
L 291.607207 64.943248 
L 291.744144 65.054962 
L 291.881081 65.16697 
L 292.018018 65.279275 
L 292.154955 65.391876 
L 292.291892 65.504776 
L 292.428829 65.617974 
L 292.565766 65.731472 
L 292.702703 65.845271 
L 292.83964 65.959372 
L 292.976577 66.073775 
L 293.113514 66.188483 
L 293.25045 66.303495 
L 293.387387 66.418813 
L 293.524324 66.534438 
L 293.661261 66.65037 
L 293.798198 66.766612 
L 293.935135 66.883163 
L 294.072072 67.000025 
L 294.209009 67.117199 
L 294.345946 67.234686 
L 294.482883 67.352488 
L 294.61982 67.470604 
L 294.756757 67.589037 
L 294.893694 67.707787 
L 295.030631 67.826855 
L 295.167568 67.946243 
L 295.304505 68.065952 
L 295.441441 68.185982 
L 295.578378 68.306336 
L 295.715315 68.427013 
L 295.852252 68.548015 
L 295.989189 68.669344 
L 296.126126 68.791 
L 296.263063 68.912985 
L 296.4 69.0353 
L 296.536937 69.157946 
L 296.673874 69.280924 
L 296.810811 69.404236 
L 296.947748 69.527882 
L 297.084685 69.651864 
L 297.221622 69.776183 
L 297.358559 69.90084 
L 297.495495 70.025837 
L 297.632432 70.151175 
L 297.769369 70.276855 
L 297.906306 70.402879 
L 298.043243 70.529247 
L 298.18018 70.655961 
L 298.317117 70.783023 
L 298.454054 70.910433 
L 298.590991 71.038193 
L 298.727928 71.166305 
L 298.864865 71.294769 
L 299.001802 71.423587 
L 299.138739 71.552761 
L 299.275676 71.682291 
L 299.412613 71.81218 
L 299.54955 71.942428 
L 299.686486 72.073038 
L 299.823423 72.204009 
L 299.96036 72.335345 
L 300.097297 72.467046 
L 300.234234 72.599114 
L 300.371171 72.73155 
L 300.508108 72.864356 
L 300.645045 72.997534 
L 300.781982 73.131084 
L 300.918919 73.265009 
L 301.055856 73.399309 
L 301.192793 73.533987 
L 301.32973 73.669044 
L 301.466667 73.804481 
L 301.603604 73.940301 
L 301.740541 74.076504 
L 301.877477 74.213093 
L 302.014414 74.350069 
L 302.151351 74.487434 
L 302.288288 74.625189 
L 302.425225 74.763336 
L 302.562162 74.901876 
L 302.699099 75.040812 
L 302.836036 75.180146 
L 302.972973 75.319878 
L 303.10991 75.460011 
L 303.246847 75.600546 
L 303.383784 75.741485 
L 303.520721 75.882831 
L 303.657658 76.024584 
L 303.794595 76.166747 
L 303.931532 76.309321 
L 304.068468 76.452309 
L 304.205405 76.595711 
L 304.342342 76.739531 
L 304.479279 76.88377 
L 304.616216 77.02843 
L 304.753153 77.173513 
L 304.89009 77.31902 
L 305.027027 77.464955 
L 305.163964 77.611318 
L 305.300901 77.758112 
L 305.437838 77.905339 
L 305.574775 78.053001 
L 305.711712 78.2011 
L 305.848649 78.349638 
L 305.985586 78.498618 
L 306.122523 78.64804 
L 306.259459 78.797909 
L 306.396396 78.948225 
L 306.533333 79.09899 
L 306.67027 79.250208 
L 306.807207 79.401881 
L 306.944144 79.55401 
L 307.081081 79.706598 
L 307.218018 79.859647 
L 307.354955 80.013159 
L 307.491892 80.167138 
L 307.628829 80.321585 
L 307.765766 80.476502 
L 307.902703 80.631892 
L 308.03964 80.787758 
L 308.176577 80.944102 
L 308.313514 81.100927 
L 308.45045 81.258234 
L 308.587387 81.416027 
L 308.724324 81.574309 
L 308.861261 81.733081 
L 308.998198 81.892346 
L 309.135135 82.052107 
L 309.272072 82.212367 
L 309.409009 82.373128 
L 309.545946 82.534393 
L 309.682883 82.696166 
L 309.81982 82.858447 
L 309.956757 83.021242 
L 310.093694 83.184551 
L 310.230631 83.348379 
L 310.367568 83.512728 
L 310.504505 83.677601 
L 310.641441 83.843001 
L 310.778378 84.008931 
L 310.915315 84.175395 
L 311.052252 84.342394 
L 311.189189 84.509933 
L 311.326126 84.678013 
L 311.463063 84.84664 
L 311.6 85.015815 
L 311.736937 85.185543 
L 311.873874 85.355825 
L 312.010811 85.526667 
L 312.147748 85.69807 
L 312.284685 85.870039 
L 312.421622 86.042576 
L 312.558559 86.215686 
L 312.695495 86.389372 
L 312.832432 86.563636 
L 312.969369 86.738484 
L 313.106306 86.913919 
L 313.243243 87.089943 
L 313.38018 87.266562 
L 313.517117 87.443779 
L 313.654054 87.621597 
L 313.790991 87.80002 
L 313.927928 87.979053 
L 314.064865 88.158699 
L 314.201802 88.338962 
L 314.338739 88.519847 
L 314.475676 88.701357 
L 314.612613 88.883496 
L 314.74955 89.06627 
L 314.886486 89.249681 
L 315.023423 89.433735 
L 315.16036 89.618435 
L 315.297297 89.803786 
L 315.434234 89.989793 
L 315.571171 90.17646 
L 315.708108 90.363792 
L 315.845045 90.551793 
L 315.981982 90.740468 
L 316.118919 90.929822 
L 316.255856 91.119859 
L 316.392793 91.310585 
L 316.52973 91.502005 
L 316.666667 91.694122 
L 316.803604 91.886944 
L 316.940541 92.080474 
L 317.077477 92.274718 
L 317.214414 92.469681 
L 317.351351 92.665369 
L 317.488288 92.861787 
L 317.625225 93.058941 
L 317.762162 93.256835 
L 317.899099 93.455477 
L 318.036036 93.654871 
L 318.172973 93.855024 
L 318.30991 94.055941 
L 318.446847 94.257628 
L 318.583784 94.460092 
L 318.720721 94.663338 
L 318.857658 94.867373 
L 318.994595 95.072204 
L 319.131532 95.277836 
L 319.268468 95.484276 
L 319.405405 95.691532 
L 319.542342 95.899609 
L 319.679279 96.108514 
L 319.816216 96.318255 
L 319.953153 96.528839 
L 320.09009 96.740272 
L 320.227027 96.952562 
L 320.363964 97.165717 
L 320.500901 97.379743 
L 320.637838 97.594649 
L 320.774775 97.810442 
L 320.911712 98.02713 
L 321.048649 98.244721 
L 321.185586 98.463224 
L 321.322523 98.682645 
L 321.459459 98.902995 
L 321.596396 99.124282 
L 321.733333 99.346513 
L 321.87027 99.569698 
L 322.007207 99.793846 
L 322.144144 100.018966 
L 322.281081 100.245068 
L 322.418018 100.47216 
L 322.554955 100.700252 
L 322.691892 100.929355 
L 322.828829 101.159477 
L 322.965766 101.39063 
L 323.102703 101.622823 
L 323.23964 101.856067 
L 323.376577 102.090373 
L 323.513514 102.325751 
L 323.65045 102.562212 
L 323.787387 102.799769 
L 323.924324 103.038431 
L 324.061261 103.278212 
L 324.198198 103.519123 
L 324.335135 103.761175 
L 324.472072 104.004382 
L 324.609009 104.248756 
L 324.745946 104.49431 
L 324.882883 104.741057 
L 325.01982 104.98901 
L 325.156757 105.238184 
L 325.293694 105.488591 
L 325.430631 105.740246 
L 325.567568 105.993164 
L 325.704505 106.24736 
L 325.841441 106.502848 
L 325.978378 106.759644 
L 326.115315 107.017764 
L 326.252252 107.277224 
L 326.389189 107.53804 
L 326.526126 107.800228 
L 326.663063 108.063808 
L 326.8 108.328794 
L 326.936937 108.595207 
L 327.073874 108.863064 
L 327.210811 109.132383 
L 327.347748 109.403184 
L 327.484685 109.675487 
L 327.621622 109.949312 
L 327.758559 110.224678 
L 327.895495 110.501608 
L 328.032432 110.780123 
L 328.169369 111.060245 
L 328.306306 111.341997 
L 328.443243 111.625401 
L 328.58018 111.910482 
L 328.717117 112.197264 
L 328.854054 112.485772 
L 328.990991 112.776031 
L 329.127928 113.068069 
L 329.264865 113.361911 
L 329.401802 113.657586 
L 329.538739 113.955123 
L 329.675676 114.254549 
L 329.812613 114.555897 
L 329.94955 114.859196 
L 330.086486 115.164478 
L 330.223423 115.471777 
L 330.36036 115.781125 
L 330.497297 116.092557 
L 330.634234 116.406109 
L 330.771171 116.721819 
L 330.908108 117.039722 
L 331.045045 117.35986 
L 331.181982 117.682271 
L 331.318919 118.006998 
L 331.455856 118.334083 
L 331.592793 118.66357 
L 331.72973 118.995505 
L 331.866667 119.329936 
L 332.003604 119.66691 
L 332.140541 120.006479 
L 332.277477 120.348695 
L 332.414414 120.693611 
L 332.551351 121.041284 
L 332.688288 121.391771 
L 332.825225 121.745133 
L 332.962162 122.101432 
L 333.099099 122.460733 
L 333.236036 122.823102 
L 333.372973 123.18861 
L 333.50991 123.557329 
L 333.646847 123.929335 
L 333.783784 124.304705 
L 333.920721 124.683523 
L 334.057658 125.065873 
L 334.194595 125.451843 
L 334.331532 125.841528 
L 334.468468 126.235024 
L 334.605405 126.632432 
L 334.742342 127.033859 
L 334.879279 127.439415 
L 335.016216 127.849218 
L 335.153153 128.263388 
L 335.29009 128.682055 
L 335.427027 129.105353 
L 335.563964 129.533424 
L 335.700901 129.966418 
L 335.837838 130.404491 
L 335.974775 130.847811 
L 336.111712 131.296553 
L 336.248649 131.750902 
L 336.385586 132.211057 
L 336.522523 132.677225 
L 336.659459 133.14963 
L 336.796396 133.628507 
L 336.933333 134.11411 
L 337.07027 134.606706 
L 337.207207 135.106585 
L 337.344144 135.614054 
L 337.481081 136.129445 
L 337.618018 136.653115 
L 337.754955 137.185448 
L 337.891892 137.72686 
L 338.028829 138.277802 
L 338.165766 138.838763 
L 338.302703 139.410278 
L 338.43964 139.992929 
L 338.576577 140.587358 
L 338.713514 141.194267 
L 338.85045 141.814437 
L 338.987387 142.448731 
L 339.124324 143.098112 
L 339.261261 143.76366 
L 339.398198 144.44659 
L 339.535135 145.148279 
L 339.672072 145.8703 
L 339.809009 146.614457 
L 339.945946 147.382844 
L 340.082883 148.177908 
L 340.21982 149.00254 
L 340.356757 149.860201 
L 340.493694 150.755088 
L 340.630631 151.692377 
L 340.767568 152.678575 
L 340.904505 153.722053 
L 341.041441 154.8339 
L 341.178378 156.029342 
L 341.315315 157.330291 
L 341.452252 158.770374 
L 341.589189 160.406178 
L 341.726126 162.348013 
L 341.863063 164.880589 
L 342 171 
L 342 171 
L 342 171 
L 341.863063 177.119411 
L 341.726126 179.651987 
L 341.589189 181.593822 
L 341.452252 183.229626 
L 341.315315 184.669709 
L 341.178378 185.970658 
L 341.041441 187.1661 
L 340.904505 188.277947 
L 340.767568 189.321425 
L 340.630631 190.307623 
L 340.493694 191.244912 
L 340.356757 192.139799 
L 340.21982 192.99746 
L 340.082883 193.822092 
L 339.945946 194.617156 
L 339.809009 195.385543 
L 339.672072 196.1297 
L 339.535135 196.851721 
L 339.398198 197.55341 
L 339.261261 198.23634 
L 339.124324 198.901888 
L 338.987387 199.551269 
L 338.85045 200.185563 
L 338.713514 200.805733 
L 338.576577 201.412642 
L 338.43964 202.007071 
L 338.302703 202.589722 
L 338.165766 203.161237 
L 338.028829 203.722198 
L 337.891892 204.27314 
L 337.754955 204.814552 
L 337.618018 205.346885 
L 337.481081 205.870555 
L 337.344144 206.385946 
L 337.207207 206.893415 
L 337.07027 207.393294 
L 336.933333 207.88589 
L 336.796396 208.371493 
L 336.659459 208.85037 
L 336.522523 209.322775 
L 336.385586 209.788943 
L 336.248649 210.249098 
L 336.111712 210.703447 
L 335.974775 211.152189 
L 335.837838 211.595509 
L 335.700901 212.033582 
L 335.563964 212.466576 
L 335.427027 212.894647 
L 335.29009 213.317945 
L 335.153153 213.736612 
L 335.016216 214.150782 
L 334.879279 214.560585 
L 334.742342 214.966141 
L 334.605405 215.367568 
L 334.468468 215.764976 
L 334.331532 216.158472 
L 334.194595 216.548157 
L 334.057658 216.934127 
L 333.920721 217.316477 
L 333.783784 217.695295 
L 333.646847 218.070665 
L 333.50991 218.442671 
L 333.372973 218.81139 
L 333.236036 219.176898 
L 333.099099 219.539267 
L 332.962162 219.898568 
L 332.825225 220.254867 
L 332.688288 220.608229 
L 332.551351 220.958716 
L 332.414414 221.306389 
L 332.277477 221.651305 
L 332.140541 221.993521 
L 332.003604 222.33309 
L 331.866667 222.670064 
L 331.72973 223.004495 
L 331.592793 223.33643 
L 331.455856 223.665917 
L 331.318919 223.993002 
L 331.181982 224.317729 
L 331.045045 224.64014 
L 330.908108 224.960278 
L 330.771171 225.278181 
L 330.634234 225.593891 
L 330.497297 225.907443 
L 330.36036 226.218875 
L 330.223423 226.528223 
L 330.086486 226.835522 
L 329.94955 227.140804 
L 329.812613 227.444103 
L 329.675676 227.745451 
L 329.538739 228.044877 
L 329.401802 228.342414 
L 329.264865 228.638089 
L 329.127928 228.931931 
L 328.990991 229.223969 
L 328.854054 229.514228 
L 328.717117 229.802736 
L 328.58018 230.089518 
L 328.443243 230.374599 
L 328.306306 230.658003 
L 328.169369 230.939755 
L 328.032432 231.219877 
L 327.895495 231.498392 
L 327.758559 231.775322 
L 327.621622 232.050688 
L 327.484685 232.324513 
L 327.347748 232.596816 
L 327.210811 232.867617 
L 327.073874 233.136936 
L 326.936937 233.404793 
L 326.8 233.671206 
L 326.663063 233.936192 
L 326.526126 234.199772 
L 326.389189 234.46196 
L 326.252252 234.722776 
L 326.115315 234.982236 
L 325.978378 235.240356 
L 325.841441 235.497152 
L 325.704505 235.75264 
L 325.567568 236.006836 
L 325.430631 236.259754 
L 325.293694 236.511409 
L 325.156757 236.761816 
L 325.01982 237.01099 
L 324.882883 237.258943 
L 324.745946 237.50569 
L 324.609009 237.751244 
L 324.472072 237.995618 
L 324.335135 238.238825 
L 324.198198 238.480877 
L 324.061261 238.721788 
L 323.924324 238.961569 
L 323.787387 239.200231 
L 323.65045 239.437788 
L 323.513514 239.674249 
L 323.376577 239.909627 
L 323.23964 240.143933 
L 323.102703 240.377177 
L 322.965766 240.60937 
L 322.828829 240.840523 
L 322.691892 241.070645 
L 322.554955 241.299748 
L 322.418018 241.52784 
L 322.281081 241.754932 
L 322.144144 241.981034 
L 322.007207 242.206154 
L 321.87027 242.430302 
L 321.733333 242.653487 
L 321.596396 242.875718 
L 321.459459 243.097005 
L 321.322523 243.317355 
L 321.185586 243.536776 
L 321.048649 243.755279 
L 320.911712 243.97287 
L 320.774775 244.189558 
L 320.637838 244.405351 
L 320.500901 244.620257 
L 320.363964 244.834283 
L 320.227027 245.047438 
L 320.09009 245.259728 
L 319.953153 245.471161 
L 319.816216 245.681745 
L 319.679279 245.891486 
L 319.542342 246.100391 
L 319.405405 246.308468 
L 319.268468 246.515724 
L 319.131532 246.722164 
L 318.994595 246.927796 
L 318.857658 247.132627 
L 318.720721 247.336662 
L 318.583784 247.539908 
L 318.446847 247.742372 
L 318.30991 247.944059 
L 318.172973 248.144976 
L 318.036036 248.345129 
L 317.899099 248.544523 
L 317.762162 248.743165 
L 317.625225 248.941059 
L 317.488288 249.138213 
L 317.351351 249.334631 
L 317.214414 249.530319 
L 317.077477 249.725282 
L 316.940541 249.919526 
L 316.803604 250.113056 
L 316.666667 250.305878 
L 316.52973 250.497995 
L 316.392793 250.689415 
L 316.255856 250.880141 
L 316.118919 251.070178 
L 315.981982 251.259532 
L 315.845045 251.448207 
L 315.708108 251.636208 
L 315.571171 251.82354 
L 315.434234 252.010207 
L 315.297297 252.196214 
L 315.16036 252.381565 
L 315.023423 252.566265 
L 314.886486 252.750319 
L 314.74955 252.93373 
L 314.612613 253.116504 
L 314.475676 253.298643 
L 314.338739 253.480153 
L 314.201802 253.661038 
L 314.064865 253.841301 
L 313.927928 254.020947 
L 313.790991 254.19998 
L 313.654054 254.378403 
L 313.517117 254.556221 
L 313.38018 254.733438 
L 313.243243 254.910057 
L 313.106306 255.086081 
L 312.969369 255.261516 
L 312.832432 255.436364 
L 312.695495 255.610628 
L 312.558559 255.784314 
L 312.421622 255.957424 
L 312.284685 256.129961 
L 312.147748 256.30193 
L 312.010811 256.473333 
L 311.873874 256.644175 
L 311.736937 256.814457 
L 311.6 256.984185 
L 311.463063 257.15336 
L 311.326126 257.321987 
L 311.189189 257.490067 
L 311.052252 257.657606 
L 310.915315 257.824605 
L 310.778378 257.991069 
L 310.641441 258.156999 
L 310.504505 258.322399 
L 310.367568 258.487272 
L 310.230631 258.651621 
L 310.093694 258.815449 
L 309.956757 258.978758 
L 309.81982 259.141553 
L 309.682883 259.303834 
L 309.545946 259.465607 
L 309.409009 259.626872 
L 309.272072 259.787633 
L 309.135135 259.947893 
L 308.998198 260.107654 
L 308.861261 260.266919 
L 308.724324 260.425691 
L 308.587387 260.583973 
L 308.45045 260.741766 
L 308.313514 260.899073 
L 308.176577 261.055898 
L 308.03964 261.212242 
L 307.902703 261.368108 
L 307.765766 261.523498 
L 307.628829 261.678415 
L 307.491892 261.832862 
L 307.354955 261.986841 
L 307.218018 262.140353 
L 307.081081 262.293402 
L 306.944144 262.44599 
L 306.807207 262.598119 
L 306.67027 262.749792 
L 306.533333 262.90101 
L 306.396396 263.051775 
L 306.259459 263.202091 
L 306.122523 263.35196 
L 305.985586 263.501382 
L 305.848649 263.650362 
L 305.711712 263.7989 
L 305.574775 263.946999 
L 305.437838 264.094661 
L 305.300901 264.241888 
L 305.163964 264.388682 
L 305.027027 264.535045 
L 304.89009 264.68098 
L 304.753153 264.826487 
L 304.616216 264.97157 
L 304.479279 265.11623 
L 304.342342 265.260469 
L 304.205405 265.404289 
L 304.068468 265.547691 
L 303.931532 265.690679 
L 303.794595 265.833253 
L 303.657658 265.975416 
L 303.520721 266.117169 
L 303.383784 266.258515 
L 303.246847 266.399454 
L 303.10991 266.539989 
L 302.972973 266.680122 
L 302.836036 266.819854 
L 302.699099 266.959188 
L 302.562162 267.098124 
L 302.425225 267.236664 
L 302.288288 267.374811 
L 302.151351 267.512566 
L 302.014414 267.649931 
L 301.877477 267.786907 
L 301.740541 267.923496 
L 301.603604 268.059699 
L 301.466667 268.195519 
L 301.32973 268.330956 
L 301.192793 268.466013 
L 301.055856 268.600691 
L 300.918919 268.734991 
L 300.781982 268.868916 
L 300.645045 269.002466 
L 300.508108 269.135644 
L 300.371171 269.26845 
L 300.234234 269.400886 
L 300.097297 269.532954 
L 299.96036 269.664655 
L 299.823423 269.795991 
L 299.686486 269.926962 
L 299.54955 270.057572 
L 299.412613 270.18782 
L 299.275676 270.317709 
L 299.138739 270.447239 
L 299.001802 270.576413 
L 298.864865 270.705231 
L 298.727928 270.833695 
L 298.590991 270.961807 
L 298.454054 271.089567 
L 298.317117 271.216977 
L 298.18018 271.344039 
L 298.043243 271.470753 
L 297.906306 271.597121 
L 297.769369 271.723145 
L 297.632432 271.848825 
L 297.495495 271.974163 
L 297.358559 272.09916 
L 297.221622 272.223817 
L 297.084685 272.348136 
L 296.947748 272.472118 
L 296.810811 272.595764 
L 296.673874 272.719076 
L 296.536937 272.842054 
L 296.4 272.9647 
L 296.263063 273.087015 
L 296.126126 273.209 
L 295.989189 273.330656 
L 295.852252 273.451985 
L 295.715315 273.572987 
L 295.578378 273.693664 
L 295.441441 273.814018 
L 295.304505 273.934048 
L 295.167568 274.053757 
L 295.030631 274.173145 
L 294.893694 274.292213 
L 294.756757 274.410963 
L 294.61982 274.529396 
L 294.482883 274.647512 
L 294.345946 274.765314 
L 294.209009 274.882801 
L 294.072072 274.999975 
L 293.935135 275.116837 
L 293.798198 275.233388 
L 293.661261 275.34963 
L 293.524324 275.465562 
L 293.387387 275.581187 
L 293.25045 275.696505 
L 293.113514 275.811517 
L 292.976577 275.926225 
L 292.83964 276.040628 
L 292.702703 276.154729 
L 292.565766 276.268528 
L 292.428829 276.382026 
L 292.291892 276.495224 
L 292.154955 276.608124 
L 292.018018 276.720725 
L 291.881081 276.83303 
L 291.744144 276.945038 
L 291.607207 277.056752 
L 291.47027 277.168171 
L 291.333333 277.279297 
L 291.196396 277.39013 
L 291.059459 277.500672 
L 290.922523 277.610924 
L 290.785586 277.720886 
L 290.648649 277.83056 
L 290.511712 277.939945 
L 290.374775 278.049044 
L 290.237838 278.157856 
L 290.100901 278.266383 
L 289.963964 278.374626 
L 289.827027 278.482586 
L 289.69009 278.590263 
L 289.553153 278.697658 
L 289.416216 278.804772 
L 289.279279 278.911606 
L 289.142342 279.018161 
L 289.005405 279.124438 
L 288.868468 279.230436 
L 288.731532 279.336159 
L 288.594595 279.441605 
L 288.457658 279.546775 
L 288.320721 279.651672 
L 288.183784 279.756295 
L 288.046847 279.860645 
L 287.90991 279.964723 
L 287.772973 280.06853 
L 287.636036 280.172066 
L 287.499099 280.275332 
L 287.362162 280.37833 
L 287.225225 280.48106 
L 287.088288 280.583522 
L 286.951351 280.685717 
L 286.814414 280.787647 
L 286.677477 280.889311 
L 286.540541 280.990711 
L 286.403604 281.091847 
L 286.266667 281.19272 
L 286.12973 281.293331 
L 285.992793 281.39368 
L 285.855856 281.493769 
L 285.718919 281.593597 
L 285.581982 281.693166 
L 285.445045 281.792476 
L 285.308108 281.891528 
L 285.171171 281.990323 
L 285.034234 282.088861 
L 284.897297 282.187143 
L 284.76036 282.28517 
L 284.623423 282.382942 
L 284.486486 282.48046 
L 284.34955 282.577725 
L 284.212613 282.674738 
L 284.075676 282.771498 
L 283.938739 282.868007 
L 283.801802 282.964266 
L 283.664865 283.060274 
L 283.527928 283.156033 
L 283.390991 283.251543 
L 283.254054 283.346805 
L 283.117117 283.44182 
L 282.98018 283.536588 
L 282.843243 283.631109 
L 282.706306 283.725385 
L 282.569369 283.819416 
L 282.432432 283.913203 
L 282.295495 284.006746 
L 282.158559 284.100045 
L 282.021622 284.193102 
L 281.884685 284.285918 
L 281.747748 284.378491 
L 281.610811 284.470824 
L 281.473874 284.562917 
L 281.336937 284.65477 
L 281.2 284.746385 
L 281.063063 284.83776 
L 280.926126 284.928898 
L 280.789189 285.019799 
L 280.652252 285.110462 
L 280.515315 285.20089 
L 280.378378 285.291082 
L 280.241441 285.381039 
L 280.104505 285.470761 
L 279.967568 285.56025 
L 279.830631 285.649505 
L 279.693694 285.738527 
L 279.556757 285.827317 
L 279.41982 285.915875 
L 279.282883 286.004202 
L 279.145946 286.092298 
L 279.009009 286.180164 
L 278.872072 286.2678 
L 278.735135 286.355208 
L 278.598198 286.442386 
L 278.461261 286.529337 
L 278.324324 286.616059 
L 278.187387 286.702555 
L 278.05045 286.788824 
L 277.913514 286.874868 
L 277.776577 286.960685 
L 277.63964 287.046278 
L 277.502703 287.131646 
L 277.365766 287.21679 
L 277.228829 287.30171 
L 277.091892 287.386408 
L 276.954955 287.470882 
L 276.818018 287.555135 
L 276.681081 287.639166 
L 276.544144 287.722976 
L 276.407207 287.806565 
L 276.27027 287.889934 
L 276.133333 287.973083 
L 275.996396 288.056013 
L 275.859459 288.138725 
L 275.722523 288.221217 
L 275.585586 288.303492 
L 275.448649 288.38555 
L 275.311712 288.467391 
L 275.174775 288.549015 
L 275.037838 288.630423 
L 274.900901 288.711615 
L 274.763964 288.792593 
L 274.627027 288.873355 
L 274.49009 288.953904 
L 274.353153 289.034238 
L 274.216216 289.114359 
L 274.079279 289.194268 
L 273.942342 289.273963 
L 273.805405 289.353447 
L 273.668468 289.432719 
L 273.531532 289.432719 
L 273.394595 289.353447 
L 273.257658 289.273963 
L 273.120721 289.194268 
L 272.983784 289.114359 
L 272.846847 289.034238 
L 272.70991 288.953904 
L 272.572973 288.873355 
L 272.436036 288.792593 
L 272.299099 288.711615 
L 272.162162 288.630423 
L 272.025225 288.549015 
L 271.888288 288.467391 
L 271.751351 288.38555 
L 271.614414 288.303492 
L 271.477477 288.221217 
L 271.340541 288.138725 
L 271.203604 288.056013 
L 271.066667 287.973083 
L 270.92973 287.889934 
L 270.792793 287.806565 
L 270.655856 287.722976 
L 270.518919 287.639166 
L 270.381982 287.555135 
L 270.245045 287.470882 
L 270.108108 287.386408 
L 269.971171 287.30171 
L 269.834234 287.21679 
L 269.697297 287.131646 
L 269.56036 287.046278 
L 269.423423 286.960685 
L 269.286486 286.874868 
L 269.14955 286.788824 
L 269.012613 286.702555 
L 268.875676 286.616059 
L 268.738739 286.529337 
L 268.601802 286.442386 
L 268.464865 286.355208 
L 268.327928 286.2678 
L 268.190991 286.180164 
L 268.054054 286.092298 
L 267.917117 286.004202 
L 267.78018 285.915875 
L 267.643243 285.827317 
L 267.506306 285.738527 
L 267.369369 285.649505 
L 267.232432 285.56025 
L 267.095495 285.470761 
L 266.958559 285.381039 
L 266.821622 285.291082 
L 266.684685 285.20089 
L 266.547748 285.110462 
L 266.410811 285.019799 
L 266.273874 284.928898 
L 266.136937 284.83776 
L 266 284.746385 
L 265.863063 284.65477 
L 265.726126 284.562917 
L 265.589189 284.470824 
L 265.452252 284.378491 
L 265.315315 284.285918 
L 265.178378 284.193102 
L 265.041441 284.100045 
L 264.904505 284.006746 
L 264.767568 283.913203 
L 264.630631 283.819416 
L 264.493694 283.725385 
L 264.356757 283.631109 
L 264.21982 283.536588 
L 264.082883 283.44182 
L 263.945946 283.346805 
L 263.809009 283.251543 
L 263.672072 283.156033 
L 263.535135 283.060274 
L 263.398198 282.964266 
L 263.261261 282.868007 
L 263.124324 282.771498 
L 262.987387 282.674738 
L 262.85045 282.577725 
L 262.713514 282.48046 
L 262.576577 282.382942 
L 262.43964 282.28517 
L 262.302703 282.187143 
L 262.165766 282.088861 
L 262.028829 281.990323 
L 261.891892 281.891528 
L 261.754955 281.792476 
L 261.618018 281.693166 
L 261.481081 281.593597 
L 261.344144 281.493769 
L 261.207207 281.39368 
L 261.07027 281.293331 
L 260.933333 281.19272 
L 260.796396 281.091847 
L 260.659459 280.990711 
L 260.522523 280.889311 
L 260.385586 280.787647 
L 260.248649 280.685717 
L 260.111712 280.583522 
L 259.974775 280.48106 
L 259.837838 280.37833 
L 259.700901 280.275332 
L 259.563964 280.172066 
L 259.427027 280.06853 
L 259.29009 279.964723 
L 259.153153 279.860645 
L 259.016216 279.756295 
L 258.879279 279.651672 
L 258.742342 279.546775 
L 258.605405 279.441605 
L 258.468468 279.336159 
L 258.331532 279.230436 
L 258.194595 279.124438 
L 258.057658 279.018161 
L 257.920721 278.911606 
L 257.783784 278.804772 
L 257.646847 278.697658 
L 257.50991 278.590263 
L 257.372973 278.482586 
L 257.236036 278.374626 
L 257.099099 278.266383 
L 256.962162 278.157856 
L 256.825225 278.049044 
L 256.688288 277.939945 
L 256.551351 277.83056 
L 256.414414 277.720886 
L 256.277477 277.610924 
L 256.140541 277.500672 
L 256.003604 277.39013 
L 255.866667 277.279297 
L 255.72973 277.168171 
L 255.592793 277.056752 
L 255.455856 276.945038 
L 255.318919 276.83303 
L 255.181982 276.720725 
L 255.045045 276.608124 
L 254.908108 276.495224 
L 254.771171 276.382026 
L 254.634234 276.268528 
L 254.497297 276.154729 
L 254.36036 276.040628 
L 254.223423 275.926225 
L 254.086486 275.811517 
L 253.94955 275.696505 
L 253.812613 275.581187 
L 253.675676 275.465562 
L 253.538739 275.34963 
L 253.401802 275.233388 
L 253.264865 275.116837 
L 253.127928 274.999975 
L 252.990991 274.882801 
L 252.854054 274.765314 
L 252.717117 274.647512 
L 252.58018 274.529396 
L 252.443243 274.410963 
L 252.306306 274.292213 
L 252.169369 274.173145 
L 252.032432 274.053757 
L 251.895495 273.934048 
L 251.758559 273.814018 
L 251.621622 273.693664 
L 251.484685 273.572987 
L 251.347748 273.451985 
L 251.210811 273.330656 
L 251.073874 273.209 
L 250.936937 273.087015 
L 250.8 272.9647 
L 250.663063 272.842054 
L 250.526126 272.719076 
L 250.389189 272.595764 
L 250.252252 272.472118 
L 250.115315 272.348136 
L 249.978378 272.223817 
L 249.841441 272.09916 
L 249.704505 271.974163 
L 249.567568 271.848825 
L 249.430631 271.723145 
L 249.293694 271.597121 
L 249.156757 271.470753 
L 249.01982 271.344039 
L 248.882883 271.216977 
L 248.745946 271.089567 
L 248.609009 270.961807 
L 248.472072 270.833695 
L 248.335135 270.705231 
L 248.198198 270.576413 
L 248.061261 270.447239 
L 247.924324 270.317709 
L 247.787387 270.18782 
L 247.65045 270.057572 
L 247.513514 269.926962 
L 247.376577 269.795991 
L 247.23964 269.664655 
L 247.102703 269.532954 
L 246.965766 269.400886 
L 246.828829 269.26845 
L 246.691892 269.135644 
L 246.554955 269.002466 
L 246.418018 268.868916 
L 246.281081 268.734991 
L 246.144144 268.600691 
L 246.007207 268.466013 
L 245.87027 268.330956 
L 245.733333 268.195519 
L 245.596396 268.059699 
L 245.459459 267.923496 
L 245.322523 267.786907 
L 245.185586 267.649931 
L 245.048649 267.512566 
L 244.911712 267.374811 
L 244.774775 267.236664 
L 244.637838 267.098124 
L 244.500901 266.959188 
L 244.363964 266.819854 
L 244.227027 266.680122 
L 244.09009 266.539989 
L 243.953153 266.399454 
L 243.816216 266.258515 
L 243.679279 266.117169 
L 243.542342 265.975416 
L 243.405405 265.833253 
L 243.268468 265.690679 
L 243.131532 265.547691 
L 242.994595 265.404289 
L 242.857658 265.260469 
L 242.720721 265.11623 
L 242.583784 264.97157 
L 242.446847 264.826487 
L 242.30991 264.68098 
L 242.172973 264.535045 
L 242.036036 264.388682 
L 241.899099 264.241888 
L 241.762162 264.094661 
L 241.625225 263.946999 
L 241.488288 263.7989 
L 241.351351 263.650362 
L 241.214414 263.501382 
L 241.077477 263.35196 
L 240.940541 263.202091 
L 240.803604 263.051775 
L 240.666667 262.90101 
L 240.52973 262.749792 
L 240.392793 262.598119 
L 240.255856 262.44599 
L 240.118919 262.293402 
L 239.981982 262.140353 
L 239.845045 261.986841 
L 239.708108 261.832862 
L 239.571171 261.678415 
L 239.434234 261.523498 
L 239.297297 261.368108 
L 239.16036 261.212242 
L 239.023423 261.055898 
L 238.886486 260.899073 
L 238.74955 260.741766 
L 238.612613 260.583973 
L 238.475676 260.425691 
L 238.338739 260.266919 
L 238.201802 260.107654 
L 238.064865 259.947893 
L 237.927928 259.787633 
L 237.790991 259.626872 
L 237.654054 259.465607 
L 237.517117 259.303834 
L 237.38018 259.141553 
L 237.243243 258.978758 
L 237.106306 258.815449 
L 236.969369 258.651621 
L 236.832432 258.487272 
L 236.695495 258.322399 
L 236.558559 258.156999 
L 236.421622 257.991069 
L 236.284685 257.824605 
L 236.147748 257.657606 
L 236.010811 257.490067 
L 235.873874 257.321987 
L 235.736937 257.15336 
L 235.6 256.984185 
L 235.463063 256.814457 
L 235.326126 256.644175 
L 235.189189 256.473333 
L 235.052252 256.30193 
L 234.915315 256.129961 
L 234.778378 255.957424 
L 234.641441 255.784314 
L 234.504505 255.610628 
L 234.367568 255.436364 
L 234.230631 255.261516 
L 234.093694 255.086081 
L 233.956757 254.910057 
L 233.81982 254.733438 
L 233.682883 254.556221 
L 233.545946 254.378403 
L 233.409009 254.19998 
L 233.272072 254.020947 
L 233.135135 253.841301 
L 232.998198 253.661038 
L 232.861261 253.480153 
L 232.724324 253.298643 
L 232.587387 253.116504 
L 232.45045 252.93373 
L 232.313514 252.750319 
L 232.176577 252.566265 
L 232.03964 252.381565 
L 231.902703 252.196214 
L 231.765766 252.010207 
L 231.628829 251.82354 
L 231.491892 251.636208 
L 231.354955 251.448207 
L 231.218018 251.259532 
L 231.081081 251.070178 
L 230.944144 250.880141 
L 230.807207 250.689415 
L 230.67027 250.497995 
L 230.533333 250.305878 
L 230.396396 250.113056 
L 230.259459 249.919526 
L 230.122523 249.725282 
L 229.985586 249.530319 
L 229.848649 249.334631 
L 229.711712 249.138213 
L 229.574775 248.941059 
L 229.437838 248.743165 
L 229.300901 248.544523 
L 229.163964 248.345129 
L 229.027027 248.144976 
L 228.89009 247.944059 
L 228.753153 247.742372 
L 228.616216 247.539908 
L 228.479279 247.336662 
L 228.342342 247.132627 
L 228.205405 246.927796 
L 228.068468 246.722164 
L 227.931532 246.515724 
L 227.794595 246.308468 
L 227.657658 246.100391 
L 227.520721 245.891486 
L 227.383784 245.681745 
L 227.246847 245.471161 
L 227.10991 245.259728 
L 226.972973 245.047438 
L 226.836036 244.834283 
L 226.699099 244.620257 
L 226.562162 244.405351 
L 226.425225 244.189558 
L 226.288288 243.97287 
L 226.151351 243.755279 
L 226.014414 243.536776 
L 225.877477 243.317355 
L 225.740541 243.097005 
L 225.603604 242.875718 
L 225.466667 242.653487 
L 225.32973 242.430302 
L 225.192793 242.206154 
L 225.055856 241.981034 
L 224.918919 241.754932 
L 224.781982 241.52784 
L 224.645045 241.299748 
L 224.508108 241.070645 
L 224.371171 240.840523 
L 224.234234 240.60937 
L 224.097297 240.377177 
L 223.96036 240.143933 
L 223.823423 239.909627 
L 223.686486 239.674249 
L 223.54955 239.437788 
L 223.412613 239.200231 
L 223.275676 238.961569 
L 223.138739 238.721788 
L 223.001802 238.480877 
L 222.864865 238.238825 
L 222.727928 237.995618 
L 222.590991 237.751244 
L 222.454054 237.50569 
L 222.317117 237.258943 
L 222.18018 237.01099 
L 222.043243 236.761816 
L 221.906306 236.511409 
L 221.769369 236.259754 
L 221.632432 236.006836 
L 221.495495 235.75264 
L 221.358559 235.497152 
L 221.221622 235.240356 
L 221.084685 234.982236 
L 220.947748 234.722776 
L 220.810811 234.46196 
L 220.673874 234.199772 
L 220.536937 233.936192 
L 220.4 233.671206 
L 220.263063 233.404793 
L 220.126126 233.136936 
L 219.989189 232.867617 
L 219.852252 232.596816 
L 219.715315 232.324513 
L 219.578378 232.050688 
L 219.441441 231.775322 
L 219.304505 231.498392 
L 219.167568 231.219877 
L 219.030631 230.939755 
L 218.893694 230.658003 
L 218.756757 230.374599 
L 218.61982 230.089518 
L 218.482883 229.802736 
L 218.345946 229.514228 
L 218.209009 229.223969 
L 218.072072 228.931931 
L 217.935135 228.638089 
L 217.798198 228.342414 
L 217.661261 228.044877 
L 217.524324 227.745451 
L 217.387387 227.444103 
L 217.25045 227.140804 
L 217.113514 226.835522 
L 216.976577 226.528223 
L 216.83964 226.218875 
L 216.702703 225.907443 
L 216.565766 225.593891 
L 216.428829 225.278181 
L 216.291892 224.960278 
L 216.154955 224.64014 
L 216.018018 224.317729 
L 215.881081 223.993002 
L 215.744144 223.665917 
L 215.607207 223.33643 
L 215.47027 223.004495 
L 215.333333 222.670064 
L 215.196396 222.33309 
L 215.059459 221.993521 
L 214.922523 221.651305 
L 214.785586 221.306389 
L 214.648649 220.958716 
L 214.511712 220.608229 
L 214.374775 220.254867 
L 214.237838 219.898568 
L 214.100901 219.539267 
L 213.963964 219.176898 
L 213.827027 218.81139 
L 213.69009 218.442671 
L 213.553153 218.070665 
L 213.416216 217.695295 
L 213.279279 217.316477 
L 213.142342 216.934127 
L 213.005405 216.548157 
L 212.868468 216.158472 
L 212.731532 215.764976 
L 212.594595 215.367568 
L 212.457658 214.966141 
L 212.320721 214.560585 
L 212.183784 214.150782 
L 212.046847 213.736612 
L 211.90991 213.317945 
L 211.772973 212.894647 
L 211.636036 212.466576 
L 211.499099 212.033582 
L 211.362162 211.595509 
L 211.225225 211.152189 
L 211.088288 210.703447 
L 210.951351 210.249098 
L 210.814414 209.788943 
L 210.677477 209.322775 
L 210.540541 208.85037 
L 210.403604 208.371493 
L 210.266667 207.88589 
L 210.12973 207.393294 
L 209.992793 206.893415 
L 209.855856 206.385946 
L 209.718919 205.870555 
L 209.581982 205.346885 
L 209.445045 204.814552 
L 209.308108 204.27314 
L 209.171171 203.722198 
L 209.034234 203.161237 
L 208.897297 202.589722 
L 208.76036 202.007071 
L 208.623423 201.412642 
L 208.486486 200.805733 
L 208.34955 200.185563 
L 208.212613 199.551269 
L 208.075676 198.901888 
L 207.938739 198.23634 
L 207.801802 197.55341 
L 207.664865 196.851721 
L 207.527928 196.1297 
L 207.390991 195.385543 
L 207.254054 194.617156 
L 207.117117 193.822092 
L 206.98018 192.99746 
L 206.843243 192.139799 
L 206.706306 191.244912 
L 206.569369 190.307623 
L 206.432432 189.321425 
L 206.295495 188.277947 
L 206.158559 187.1661 
L 206.021622 185.970658 
L 205.884685 184.669709 
L 205.747748 183.229626 
L 205.610811 181.593822 
L 205.473874 179.651987 
L 205.336937 177.119411 
L 205.2 171 
z
" clip-path="url(#p6956f983eb)" style="fill: #ffffff"/>
   </g>
   <g id="patch_2">
    <path d="M 205.2 307.8 
C 241.479784 307.8 276.278526 293.385889 301.932208 267.732208 
C 327.585889 242.078526 342 207.279784 342 171 
C 342 134.720216 327.585889 99.921474 301.932208 74.267792 
C 276.278526 48.614111 241.479784 34.2 205.2 34.2 
C 168.920216 34.2 134.121474 48.614111 108.467792 74.267792 
C 82.814111 99.921474 68.4 134.720216 68.4 171 
C 68.4 207.279784 82.814111 242.078526 108.467792 267.732208 
C 134.121474 293.385889 168.920216 307.8 205.2 307.8 
L 205.2 307.8 
z
" clip-path="url(#p6956f983eb)" style="fill: none; stroke: #000000; stroke-width: 2; stroke-linejoin: miter"/>
   </g>
   <g id="patch_3">
    <path d="M 342 307.8 
C 378.279784 307.8 413.078526 293.385889 438.732208 267.732208 
C 464.385889 242.078526 478.8 207.279784 478.8 171 
C 478.8 134.720216 464.385889 99.921474 438.732208 74.267792 
C 413.078526 48.614111 378.279784 34.2 342 34.2 
C 305.720216 34.2 270.921474 48.614111 245.267792 74.267792 
C 219.614111 99.921474 205.2 134.720216 205.2 171 
C 205.2 207.279784 219.614111 242.078526 245.267792 267.732208 
C 270.921474 293.385889 305.720216 307.8 342 307.8 
L 342 307.8 
z
" clip-path="url(#p6956f983eb)" style="fill: none; stroke: #000000; stroke-width: 2; stroke-linejoin: miter"/>
   </g>
   <g id="text_1">
    <!-- $A \cap B$ -->
    <g transform="translate(222.013618 180.961371) scale(0.4 -0.4)">
     <defs>
      <path id="CMMI12-41" d="M 1088 691 
C 864 314 646 186 339 186 
C 269 180 218 180 218 58 
C 218 24 250 0 294 0 
C 410 0 698 0 813 0 
C 998 0 1203 0 1382 0 
C 1421 0 1498 0 1498 122 
C 1498 180 1446 186 1408 186 
C 1261 186 1139 236 1139 388 
C 1139 476 1178 546 1261 685 
L 1747 1479 
L 3379 1479 
C 3386 1423 3386 1373 3392 1316 
C 3411 1152 3488 495 3488 376 
C 3488 186 3162 186 3059 186 
C 2989 186 2918 186 2918 70 
C 2918 0 2976 0 3014 0 
C 3123 0 3251 0 3360 0 
L 3725 0 
C 4115 0 4397 0 4403 0 
C 4448 0 4518 0 4518 122 
C 4518 186 4461 186 4365 186 
C 4013 186 4006 244 3987 434 
L 3597 4404 
C 3584 4531 3558 4544 3488 4544 
C 3424 4544 3386 4531 3328 4435 
L 1088 691 
z
M 1856 1664 
L 3142 3819 
L 3360 1664 
L 1856 1664 
z
" transform="scale(0.015625)"/>
      <path id="CMSY10-5c" d="M 3911 2436 
C 3911 3409 2932 3831 2132 3831 
C 1300 3831 352 3383 352 2442 
L 352 94 
C 352 -22 352 -137 480 -137 
C 608 -137 608 -22 608 94 
L 608 2410 
C 608 3370 1652 3575 2132 3575 
C 2420 3575 2823 3518 3163 3300 
C 3655 2986 3655 2577 3655 2404 
L 3655 94 
C 3655 -22 3655 -137 3783 -137 
C 3911 -137 3911 -22 3911 94 
L 3911 2436 
z
" transform="scale(0.015625)"/>
      <path id="CMMI12-42" d="M 2342 3921 
C 2400 4160 2426 4160 2675 4160 
L 3507 4160 
C 4230 4160 4230 3544 4230 3485 
C 4230 2966 3712 2304 2867 2304 
L 1946 2304 
L 2342 3921 
z
M 3424 2275 
C 4122 2402 4755 2886 4755 3473 
C 4755 3970 4314 4352 3590 4352 
L 1536 4352 
C 1414 4352 1357 4352 1357 4226 
C 1357 4160 1414 4160 1510 4160 
C 1901 4160 1901 4112 1901 4044 
C 1901 4032 1901 3993 1875 3897 
L 1011 472 
C 954 249 941 185 493 185 
C 371 185 307 185 307 70 
C 307 0 346 0 474 0 
L 2669 0 
C 3648 0 4403 739 4403 1383 
C 4403 1906 3942 2224 3424 2275 
z
M 2515 185 
L 1651 185 
C 1562 185 1549 185 1510 192 
C 1440 198 1434 211 1434 261 
C 1434 305 1446 343 1459 399 
L 1907 2176 
L 3110 2176 
C 3866 2176 3866 1483 3866 1433 
C 3866 828 3309 185 2515 185 
z
" transform="scale(0.015625)"/>
     </defs>
     <use xlink:href="#CMMI12-41" transform="scale(0.996264)"/>
     <use xlink:href="#CMSY10-5c" transform="translate(95.267092 0) scale(0.996264)"/>
     <use xlink:href="#CMMI12-42" transform="translate(183.824118 0) scale(0.996264)"/>
    </g>
   </g>
   <g id="text_2">
    <!-- $A$ -->
    <g transform="translate(122.174426 180.961371) scale(0.4 -0.4)">
     <use xlink:href="#CMMI12-41" transform="scale(0.996264)"/>
    </g>
   </g>
   <g id="text_3">
    <!-- $B$ -->
    <g transform="translate(395.578399 180.961371) scale(0.4 -0.4)">
     <use xlink:href="#CMMI12-42" transform="scale(0.996264)"/>
    </g>
   </g>
   <g id="text_4">
    <!-- $(A \cap B)^{\mathsf{c}}$ -->
    <g transform="translate(201.066413 369.061371) scale(0.4 -0.4)">
     <defs>
      <path id="CMR17-28" d="M 1958 -1561 
C 1958 -1555 1958 -1542 1939 -1523 
C 1645 -1224 858 -407 858 1581 
C 858 3569 1632 4379 1946 4697 
C 1946 4704 1958 4717 1958 4736 
C 1958 4755 1939 4768 1914 4768 
C 1843 4768 1299 4296 986 3594 
C 666 2887 576 2199 576 1588 
C 576 1128 621 351 1005 -471 
C 1312 -1135 1837 -1600 1914 -1600 
C 1946 -1600 1958 -1587 1958 -1561 
z
" transform="scale(0.015625)"/>
      <path id="CMR17-29" d="M 1683 1581 
C 1683 2040 1638 2817 1254 3639 
C 947 4303 422 4768 346 4768 
C 326 4768 301 4761 301 4729 
C 301 4717 307 4710 314 4697 
C 621 4378 1402 3568 1402 1584 
C 1402 -407 627 -1217 314 -1537 
C 307 -1549 301 -1556 301 -1568 
C 301 -1600 326 -1600 346 -1600 
C 416 -1600 960 -1128 1274 -426 
C 1594 281 1683 969 1683 1581 
z
" transform="scale(0.015625)"/>
      <path id="CMSS17-63" d="M 2464 2541 
C 2464 2585 2170 2714 2093 2739 
C 1882 2816 1613 2816 1542 2816 
C 710 2816 211 2093 211 1363 
C 211 595 768 -64 1517 -64 
C 1946 -64 2253 76 2502 242 
L 2464 664 
C 2189 453 1869 337 1523 337 
C 1024 337 698 774 698 1369 
C 698 1831 909 2414 1549 2414 
C 1901 2414 2099 2343 2394 2145 
L 2464 2541 
z
" transform="scale(0.015625)"/>
     </defs>
     <use xlink:href="#CMR17-28" transform="scale(0.996264)"/>
     <use xlink:href="#CMMI12-41" transform="translate(35.280768 0) scale(0.996264)"/>
     <use xlink:href="#CMSY10-5c" transform="translate(130.54786 0) scale(0.996264)"/>
     <use xlink:href="#CMMI12-42" transform="translate(219.104886 0) scale(0.996264)"/>
     <use xlink:href="#CMR17-29" transform="translate(298.240409 0) scale(0.996264)"/>
     <use xlink:href="#CMSS17-63" transform="translate(333.521177 36.153639) scale(0.697382)"/>
    </g>
   </g>
  </g>
 </g>
 <defs>
  <clipPath id="p6956f983eb">
   <rect x="0" y="0" width="547.2" height="410.4"/>
  </clipPath>
 </defs>
</svg>
