<?xml version="1.0" encoding="utf-8" standalone="no"?>
<!DOCTYPE svg PUBLIC "-//W3C//DTD SVG 1.1//EN"
  "http://www.w3.org/Graphics/SVG/1.1/DTD/svg11.dtd">
<svg xmlns:xlink="http://www.w3.org/1999/xlink" width="479.23039pt" height="506.88pt" viewBox="0 0 479.23039 506.88" xmlns="http://www.w3.org/2000/svg" version="1.1">
 <metadata>
  <rdf:RDF xmlns:dc="http://purl.org/dc/elements/1.1/" xmlns:cc="http://creativecommons.org/ns#" xmlns:rdf="http://www.w3.org/1999/02/22-rdf-syntax-ns#">
   <cc:Work>
    <dc:type rdf:resource="http://purl.org/dc/dcmitype/StillImage"/>
    <dc:date>2024-02-22T16:24:48.526430</dc:date>
    <dc:format>image/svg+xml</dc:format>
    <dc:creator>
     <cc:Agent>
      <dc:title>Matplotlib v3.8.2, https://matplotlib.org/</dc:title>
     </cc:Agent>
    </dc:creator>
   </cc:Work>
  </rdf:RDF>
 </metadata>
 <defs>
  <style type="text/css">*{stroke-linejoin: round; stroke-linecap: butt}</style>
 </defs>
 <g id="figure_1">
  <g id="patch_1">
   <path d="M 0 506.88 
L 479.23039 506.88 
L 479.23039 0 
L 0 0 
z
" style="fill: #ffffff"/>
  </g>
  <g id="axes_1">
   <g id="patch_2">
    <path d="M 21.620953 457.609437 
L 479.23039 457.609437 
L 479.23039 0 
L 21.620953 0 
z
" style="fill: #ffffff"/>
   </g>
   <g id="matplotlib.axis_1">
    <g id="xtick_1">
     <g id="line2d_1">
      <path d="M 59.755072 457.609437 
L 59.755072 0 
" clip-path="url(#pa233e08cf6)" style="fill: none; stroke-dasharray: 1.5,2.475; stroke-dashoffset: 0; stroke: #000000; stroke-opacity: 0.3; stroke-width: 1.5"/>
     </g>
     <g id="line2d_2">
      <defs>
       <path id="mbd18f04c16" d="M 0 0 
L 0 3.5 
" style="stroke: #000000; stroke-width: 0.8"/>
      </defs>
      <g>
       <use xlink:href="#mbd18f04c16" x="59.755072" y="457.609437" style="stroke: #000000; stroke-width: 0.8"/>
      </g>
     </g>
     <g id="text_1">
      <!-- $0$ -->
      <g transform="translate(52.444596 486.748644) scale(0.32 -0.32)">
       <defs>
        <path id="CMR17-30" d="M 2688 2025 
C 2688 2416 2682 3080 2413 3591 
C 2176 4039 1798 4198 1466 4198 
C 1158 4198 768 4058 525 3597 
C 269 3118 243 2524 243 2025 
C 243 1661 250 1106 448 619 
C 723 -39 1216 -128 1466 -128 
C 1760 -128 2208 -7 2470 600 
C 2662 1042 2688 1559 2688 2025 
z
M 1466 -26 
C 1056 -26 813 325 723 812 
C 653 1188 653 1738 653 2096 
C 653 2588 653 2997 736 3387 
C 858 3929 1216 4096 1466 4096 
C 1728 4096 2067 3923 2189 3400 
C 2272 3036 2278 2607 2278 2096 
C 2278 1680 2278 1169 2202 792 
C 2067 95 1690 -26 1466 -26 
z
" transform="scale(0.015625)"/>
       </defs>
       <use xlink:href="#CMR17-30" transform="scale(0.996264)"/>
      </g>
     </g>
    </g>
    <g id="xtick_2">
     <g id="line2d_3">
      <path d="M 186.868805 457.609437 
L 186.868805 0 
" clip-path="url(#pa233e08cf6)" style="fill: none; stroke-dasharray: 1.5,2.475; stroke-dashoffset: 0; stroke: #000000; stroke-opacity: 0.3; stroke-width: 1.5"/>
     </g>
     <g id="line2d_4">
      <g>
       <use xlink:href="#mbd18f04c16" x="186.868805" y="457.609437" style="stroke: #000000; stroke-width: 0.8"/>
      </g>
     </g>
     <g id="text_2">
      <!-- $\frac{1}{j}$ -->
      <g transform="translate(181.721033 491.547072) scale(0.32 -0.32)">
       <defs>
        <path id="CMR17-31" d="M 1702 4058 
C 1702 4192 1696 4192 1606 4192 
C 1357 3916 979 3827 621 3827 
C 602 3827 570 3827 563 3808 
C 557 3795 557 3782 557 3648 
C 755 3648 1088 3686 1344 3839 
L 1344 461 
C 1344 236 1331 160 781 160 
L 589 160 
L 589 0 
C 896 0 1216 0 1523 0 
C 1830 0 2150 0 2458 0 
L 2458 160 
L 2266 160 
C 1715 160 1702 230 1702 458 
L 1702 4058 
z
" transform="scale(0.015625)"/>
        <path id="CMMI12-6a" d="M 2240 2028 
C 2266 2131 2266 2219 2266 2245 
C 2266 2613 1990 2816 1702 2816 
C 1056 2816 710 1889 710 1845 
C 710 1813 736 1788 774 1788 
C 826 1788 832 1813 864 1876 
C 1120 2492 1440 2689 1683 2689 
C 1818 2689 1888 2618 1888 2397 
C 1888 2245 1869 2181 1843 2067 
L 1235 -327 
C 1114 -796 813 -1152 461 -1152 
C 435 -1152 301 -1152 179 -1088 
C 333 -1056 454 -936 454 -784 
C 454 -682 378 -580 237 -580 
C 70 -580 -83 -720 -83 -911 
C -83 -1171 198 -1280 461 -1280 
C 902 -1280 1485 -956 1645 -320 
L 2240 2028 
z
M 2502 4013 
C 2502 4173 2368 4224 2291 4224 
C 2118 4224 1971 4058 1971 3917 
C 1971 3822 2048 3707 2189 3707 
C 2336 3707 2502 3847 2502 4013 
z
" transform="scale(0.015625)"/>
       </defs>
       <use xlink:href="#CMR17-31" transform="translate(0.095209 39.226102) scale(0.697382)"/>
       <use xlink:href="#CMMI12-6a" transform="translate(0 -34.355253) scale(0.697382)"/>
       <path d="M 0 22.914133 
L 32.173584 22.914133 
L 32.173584 26.899083 
L 0 26.899083 
L 0 22.914133 
z
"/>
      </g>
     </g>
    </g>
    <g id="xtick_3">
     <g id="line2d_5">
      <path d="M 250.425671 457.609437 
L 250.425671 0 
" clip-path="url(#pa233e08cf6)" style="fill: none; stroke-dasharray: 1.5,2.475; stroke-dashoffset: 0; stroke: #000000; stroke-opacity: 0.3; stroke-width: 1.5"/>
     </g>
     <g id="line2d_6">
      <g>
       <use xlink:href="#mbd18f04c16" x="250.425671" y="457.609437" style="stroke: #000000; stroke-width: 0.8"/>
      </g>
     </g>
     <g id="text_3">
      <!-- $\frac{1}{j-1}$ -->
      <g transform="translate(231.482039 491.547072) scale(0.32 -0.32)">
       <defs>
        <path id="CMSY10-0" d="M 4218 1472 
C 4326 1472 4442 1472 4442 1600 
C 4442 1728 4326 1728 4218 1728 
L 755 1728 
C 646 1728 531 1728 531 1600 
C 531 1472 646 1472 755 1472 
L 4218 1472 
z
" transform="scale(0.015625)"/>
       </defs>
       <use xlink:href="#CMR17-31" transform="translate(43.207296 39.226102) scale(0.697382)"/>
       <use xlink:href="#CMMI12-6a" transform="translate(0 -34.355253) scale(0.697382)"/>
       <use xlink:href="#CMSY10-0" transform="translate(32.173584 -34.355253) scale(0.697382)"/>
       <use xlink:href="#CMR17-31" transform="translate(86.414578 -34.355253) scale(0.697382)"/>
       <path d="M 0 22.914133 
L 118.39776 22.914133 
L 118.39776 26.899083 
L 0 26.899083 
L 0 22.914133 
z
"/>
      </g>
     </g>
    </g>
    <g id="xtick_4">
     <g id="line2d_7">
      <path d="M 441.09627 457.609437 
L 441.09627 0 
" clip-path="url(#pa233e08cf6)" style="fill: none; stroke-dasharray: 1.5,2.475; stroke-dashoffset: 0; stroke: #000000; stroke-opacity: 0.3; stroke-width: 1.5"/>
     </g>
     <g id="line2d_8">
      <g>
       <use xlink:href="#mbd18f04c16" x="441.09627" y="457.609437" style="stroke: #000000; stroke-width: 0.8"/>
      </g>
     </g>
     <g id="text_4">
      <!-- $1$ -->
      <g transform="translate(433.785794 486.748644) scale(0.32 -0.32)">
       <use xlink:href="#CMR17-31" transform="scale(0.996264)"/>
      </g>
     </g>
    </g>
   </g>
   <g id="matplotlib.axis_2">
    <g id="ytick_1">
     <g id="line2d_9">
      <path d="M 21.620953 419.475318 
L 479.23039 419.475318 
" clip-path="url(#pa233e08cf6)" style="fill: none; stroke-dasharray: 1.5,2.475; stroke-dashoffset: 0; stroke: #000000; stroke-opacity: 0.3; stroke-width: 1.5"/>
     </g>
     <g id="line2d_10">
      <defs>
       <path id="mbad17e8e60" d="M 0 0 
L -3.5 0 
" style="stroke: #000000; stroke-width: 0.8"/>
      </defs>
      <g>
       <use xlink:href="#mbad17e8e60" x="21.620953" y="419.475318" style="stroke: #000000; stroke-width: 0.8"/>
      </g>
     </g>
     <g id="text_5">
      <!-- $\mathdefault{0}$ -->
      <g transform="translate(0 430.544921) scale(0.32 -0.32)">
       <use xlink:href="#CMR17-30" transform="scale(0.996264)"/>
      </g>
     </g>
    </g>
    <g id="ytick_2">
     <g id="line2d_11">
      <path d="M 21.620953 38.13412 
L 479.23039 38.13412 
" clip-path="url(#pa233e08cf6)" style="fill: none; stroke-dasharray: 1.5,2.475; stroke-dashoffset: 0; stroke: #000000; stroke-opacity: 0.3; stroke-width: 1.5"/>
     </g>
     <g id="line2d_12">
      <g>
       <use xlink:href="#mbad17e8e60" x="21.620953" y="38.13412" style="stroke: #000000; stroke-width: 0.8"/>
      </g>
     </g>
     <g id="text_6">
      <!-- $\mathdefault{1}$ -->
      <g transform="translate(0 49.203723) scale(0.32 -0.32)">
       <use xlink:href="#CMR17-31" transform="scale(0.996264)"/>
      </g>
     </g>
    </g>
   </g>
   <g id="line2d_13">
    <path d="M 59.755072 38.13412 
L 186.868805 38.13412 
L 250.425671 419.475318 
L 441.09627 419.475318 
" clip-path="url(#pa233e08cf6)" style="fill: none; stroke: #000000; stroke-width: 2; stroke-linecap: square"/>
   </g>
   <g id="patch_3">
    <path d="M 21.620953 457.609437 
L 21.620953 0 
" style="fill: none; stroke: #000000; stroke-width: 0.8; stroke-linejoin: miter; stroke-linecap: square"/>
   </g>
   <g id="patch_4">
    <path d="M 479.23039 457.609437 
L 479.23039 0 
" style="fill: none; stroke: #000000; stroke-width: 0.8; stroke-linejoin: miter; stroke-linecap: square"/>
   </g>
   <g id="patch_5">
    <path d="M 21.620953 457.609437 
L 479.23039 457.609437 
" style="fill: none; stroke: #000000; stroke-width: 0.8; stroke-linejoin: miter; stroke-linecap: square"/>
   </g>
   <g id="patch_6">
    <path d="M 21.620953 0 
L 479.23039 0 
" style="fill: none; stroke: #000000; stroke-width: 0.8; stroke-linejoin: miter; stroke-linecap: square"/>
   </g>
  </g>
 </g>
 <defs>
  <clipPath id="pa233e08cf6">
   <rect x="21.620953" y="0" width="457.609437" height="457.609437"/>
  </clipPath>
 </defs>
</svg>
